<?xml version="1.0" standalone="no"?>
<!DOCTYPE svg PUBLIC "-//W3C//DTD SVG 1.1//EN" "http://www.w3.org/Graphics/SVG/1.1/DTD/svg11.dtd" >
<svg xmlns="http://www.w3.org/2000/svg">
<metadata>Generated by IcoMoon</metadata>
<defs>
<font id="icomoon" horiz-adv-x="1024">
<font-face units-per-em="1024" ascent="960" descent="-64" />
<missing-glyph horiz-adv-x="1024" />
<glyph unicode="&#x20;" horiz-adv-x="512" d="" />
<glyph unicode="&#xe900;" glyph-name="iconfont-interactivescreen" horiz-adv-x="1514" d="M0 960v-801.825h1424.2v801.825h-1424.2zM1334.476 247.9h-1246.175v622.376h1246.175v-622.376zM554.391 69.875l-161.876-133.875h680.742l-161.876 133.875z" />
<glyph unicode="&#xe901;" glyph-name="iconfont-miaojiesellercalendar" d="M767.64 743.451h-63.060v48.095h-48.095v-48.095h-287.549v48.095h-48.095v-48.095h-48.115c-75.153 0-144.268-67.027-144.268-142.178v-367.002c0-75.153 69.115-130.387 144.268-130.387h494.915c75.153 0 128.298 55.235 128.298 130.387v367.001c-0.001 75.153-53.146 142.179-128.298 142.179zM848.865 234.271c0-48.701-32.525-82.291-81.226-82.291h-494.914c-48.701 0-96.172 33.59-96.172 82.291v367.001c0 48.701 47.471 94.083 96.172 94.083h48.114v-63.445h48.095v63.445h287.549v-63.445h48.095v63.445h63.060c48.701 0 81.226-45.382 81.226-94.083v-367.001zM272.744 552.093h96.191v-48.095h-96.191v48.095zM272.744 424.179h96.191v-48.095h-96.191v48.095zM272.744 296.266h96.191v-48.095h-96.191v48.095zM465.125 552.093h95.167v-48.095h-95.167v48.095zM465.125 424.179h95.167v-48.095h-95.167v48.095zM465.125 296.266h95.167v-48.095h-95.167v48.095zM656.484 552.093h96.191v-48.095h-96.191v48.095zM656.484 424.179h96.191v-48.095h-96.191v48.095z" />
<glyph unicode="&#xe902;" glyph-name="iconfont-atmaway" d="M784.13 332.8v0c-20.69 0-37.463 44.891-37.463 100.267s16.773 100.267 37.463 100.267c20.69 0 37.463-44.891 37.463-100.267s-16.773-100.267-37.463-100.267v0zM506.797 293.867v0c-20.69 0-37.463 39.28-37.463 87.733s16.773 87.733 37.463 87.733c20.69 0 37.463-39.28 37.463-87.733s-16.773-87.733-37.463-87.733v0zM298.176 789.32c-149.272-73.128-245.851-210.105-250.381-363.22-0.112-3.774-0.168-7.555-0.168-11.34 0-13.152 10.662-23.814 23.814-23.814s23.814 10.662 23.814 23.814c0 3.316 0.049 6.627 0.147 9.932 3.983 134.635 89.69 256.193 223.727 321.857 11.811 5.786 16.695 20.051 10.909 31.862s-20.051 16.695-31.862 10.909v0zM495.753-12.469c13.276-0.947 26.637-1.422 40.061-1.422 268.947 0 488.186 191.132 488.186 428.651s-219.239 428.651-488.186 428.651c3.48 0 4.717-0.554 4.64-0.498-2.031 1.485-4.352 3.51-10.561 9.169-17.272 15.74-28.080 24.576-44.793 35.226-51.359 32.726-118.725 51.359-211.239 51.359-13.152 0-23.814-10.662-23.814-23.814s10.662-23.814 23.814-23.814c83.664 0 142.135-16.172 185.645-43.897 11.547-7.358 59.83-51.359 76.309-51.359 243.985 0 440.558-171.372 440.558-381.023s-196.574-381.023-440.558-381.023c-12.294 0-24.526 0.436-36.674 1.302-13.119 0.935-24.512-8.941-25.447-22.060s8.941-24.512 22.060-25.447v0zM238.14-61.519c131.521 0 238.14 106.619 238.14 238.14s-106.619 238.14-238.14 238.14c-131.521 0-238.14-106.619-238.14-238.14s106.619-238.14 238.14-238.14v0zM238.14-13.891c-105.217 0-190.512 85.295-190.512 190.512s85.295 190.512 190.512 190.512c105.217 0 190.512-85.295 190.512-190.512s-85.295-190.512-190.512-190.512v0zM214.326 281.402v-142.884c0-13.152 10.662-23.814 23.814-23.814s23.814 10.662 23.814 23.814v142.884c0 13.152-10.662 23.814-23.814 23.814s-23.814-10.662-23.814-23.814v0zM303.689 125.623l-66.679 76.205c-8.661 9.898-23.705 10.901-33.603 2.24s-10.901-23.705-2.24-33.603l66.679-76.205c8.661-9.898 23.705-10.901 33.603-2.24s10.901 23.705 2.24 33.603v0z" />
<glyph unicode="&#xe903;" glyph-name="iconfont-emoji" d="M964.296 639.757c-24.662 58.328-59.976 110.701-104.95 155.676s-97.347 80.289-155.676 104.961c-60.396 25.542-124.536 38.497-190.652 38.497s-130.257-12.955-190.652-38.497c-58.328-24.672-110.701-59.986-155.676-104.961s-80.289-97.347-104.95-155.676c-25.552-60.396-38.497-124.536-38.497-190.652 0-66.106 12.945-130.257 38.497-190.642 24.662-58.328 59.976-110.701 104.95-155.676s97.347-80.289 155.676-104.95c60.396-25.552 124.536-38.497 190.652-38.497s130.257 12.945 190.652 38.497c58.328 24.662 110.701 59.976 155.676 104.95s80.289 97.347 104.95 155.676c25.552 60.385 38.507 124.536 38.507 190.642 0 66.116-12.955 130.257-38.507 190.652zM926.598 274.406c-22.605-53.447-54.972-101.451-96.191-142.68-41.229-41.219-89.232-73.586-142.68-96.191-55.33-23.403-114.109-35.263-174.709-35.263s-119.379 11.86-174.709 35.263c-53.447 22.605-101.451 54.972-142.68 96.191-41.219 41.229-73.586 89.232-96.191 142.68-23.403 55.32-35.263 114.099-35.263 174.699 0 60.61 11.86 119.389 35.263 174.709 22.605 53.447 54.972 101.451 96.201 142.68 41.219 41.229 89.222 73.596 142.669 96.201 55.33 23.393 114.109 35.263 174.709 35.263s119.379-11.87 174.709-35.263c53.447-22.605 101.451-54.972 142.68-96.201 41.219-41.229 73.586-89.232 96.191-142.68 23.403-55.32 35.273-114.099 35.273-174.709 0-60.6-11.87-119.379-35.273-174.699zM794.939 314.786c-1.115-1.566-27.793-38.568-75.51-75.684-28.11-21.868-57.827-39.315-88.301-51.861-38.456-15.841-78.191-23.864-118.11-23.864s-79.654 8.023-118.11 23.864c-30.474 12.546-60.191 29.993-88.301 51.861-47.717 37.115-74.394 74.118-75.51 75.684-6.57 9.189-4.441 21.981 4.758 28.55 9.189 6.559 21.96 4.441 28.54-4.738 0.113-0.164 6.365-8.78 18-21.541 11.625-12.761 28.653-29.655 50.326-46.397 25.112-19.412 51.513-34.833 78.457-45.854 33.268-13.6 67.528-20.497 101.839-20.497s68.572 6.897 101.839 20.497c26.944 11.021 53.345 26.442 78.467 45.854 43.337 33.483 68.081 67.6 68.326 67.937 6.58 9.169 19.361 11.277 28.54 4.707 9.179-6.58 11.308-19.33 4.748-28.52zM737.45 510.319c0-33.8-27.425-61.214-61.204-61.214s-61.204 27.414-61.204 61.214c0 33.81 27.425 61.214 61.204 61.214s61.204-27.404 61.204-61.214zM410.974 510.319c0-33.8-27.425-61.214-61.204-61.214s-61.204 27.414-61.204 61.214c0 33.81 27.425 61.214 61.204 61.214s61.204-27.404 61.204-61.214z" />
<glyph unicode="&#xe904;" glyph-name="iconfont-filter" d="M1024 840.448c0-32-12.544-61.952-35.072-84.48l-323.328-307.482v-486.886c0-14.080-11.52-25.6-25.6-25.6s-25.6 11.52-25.6 25.6v497.894c0 6.912 2.816 13.824 7.936 18.432l330.752 314.65c12.544 12.544 19.712 29.696 19.712 47.872 0 37.632-30.72 68.352-68.352 68.352 0 0-784.128 0-784.896 0-37.632 0-68.352-30.72-68.352-68.352 0-18.176 7.168-35.328 19.968-48.384l305.152-314.88c4.864-4.864 7.68-11.52 7.68-18.432v-369.152c0-14.336-11.52-25.6-25.6-25.6s-25.6 11.264-25.6 25.6v358.4l-297.472 307.712c-22.784 22.784-35.328 52.736-35.328 84.736 0 66.048 53.76 119.552 119.552 119.552 0.768 0 784.896 0 784.896 0 66.048 0 119.552-53.504 119.552-119.552z" />
<glyph unicode="&#xe905;" glyph-name="iconfont-interactivescreen2" horiz-adv-x="1514" d="M0 960v-801.825h1424.2v801.825h-1424.2zM1334.476 247.9h-1246.175v622.376h1246.175v-622.376zM554.391 69.875l-161.876-133.875h680.742l-161.876 133.875z" />
<glyph unicode="&#xe906;" glyph-name="iconfont-order" d="M418.142 824.761v-743.094c0-11.297-9.159-20.466-20.466-20.466-11.297 0-20.466 9.169-20.466 20.466v708.026l-223.275-223.285c-7.992-7.992-20.957-7.992-28.949 0s-7.992 20.957 0 28.949l258.211 258.201c5.853 5.853 14.644 7.603 22.298 4.441 7.644-3.162 12.628-10.622 12.638-18.89l0.010-14.347zM914.958 325.408l-258.211-258.211c-3.909-3.909-9.148-5.997-14.48-5.997-2.63 0-5.28 0.512-7.818 1.555-7.644 3.162-12.628 10.622-12.638 18.9l-0.010 14.347v743.084c0 11.308 9.159 20.466 20.466 20.466 11.297 0 20.466-9.159 20.466-20.466v-708.015l223.275 223.275c7.992 7.992 20.957 7.992 28.949 0s7.992-20.947 0-28.939z" />
<glyph unicode="&#xe907;" glyph-name="iconfont-people2" d="M934.603 412.628c0 36.45-42.825 71.992-100.161 90.869-2.625 0.863-19.133 8.269-8.826 39.52h-0.129c26.913 27.531 47.465 71.958 47.465 115.604 0 67.209-44.887 102.398-97.070 102.398-52.194 0-96.839-35.189-96.839-102.398 0-43.881 20.454-88.393 47.509-115.928 10.547-27.525-8.328-37.754-12.255-39.196-13.661-4.903-26.767-10.832-38.753-17.533 0 11.735 0 21.699 0 25.131 0 36.439-47.634 71.987-104.972 90.857-2.625 0.87-19.131 8.274-8.826 39.52h-0.129c26.913 27.531 47.463 71.958 47.463 115.604 0 67.216-44.887 102.405-97.067 102.405-52.196 0-96.841-35.189-96.841-102.405 0-43.873 20.454-88.393 47.514-115.917 10.547-27.538-8.33-37.758-12.26-39.206-54.627-19.675-100.592-55.474-100.592-90.857 0-3.527 0-13.848 0-25.963-12.387 6.982-25.928 13.239-40.134 18.365-3.931 1.441-22.805 11.671-12.258 39.196 27.057 27.536 47.509 72.047 47.509 115.928 0 67.209-44.643 102.398-96.841 102.398-52.178 0-97.065-35.189-97.065-102.398 0-43.646 20.552-88.073 47.46-115.604h-0.127c10.307-31.251-6.203-38.656-8.828-39.52-57.334-18.877-100.156-54.417-100.156-90.869 0-9.551 0-159.123 0-168.618 0-0.354 0.178-0.601 0.195-0.959-0.017-0.671-0.195-1.348-0.195-2.020 0-91.373 103.734-169.841 252.193-204.513v50.996c0 41.693 53.259 79.578 106.035 98.586 0 0 5.638 2.273 8.39 8.33 2.273 4.969 2.111 11.25-0.48 18.684-29.57 30.861-48.604 77.883-48.604 120.38 0 76.411 52.774 110.61 105.083 110.61 52.423 0 105.313-34.2 105.313-110.61 0-42.016-18.875-88.744-48.235-119.707-5.703-18.557-0.178-26.090 4.109-27.625 51.006-16.798 110.593-52.723 110.593-98.647v-50.645c147.702 34.837 250.809 113.072 250.809 204.161 0 0.671-0.178 1.348-0.197 2.020 0.020 0.358 0.197 0.605 0.197 0.959 0.001 9.495 0.001 159.068 0.001 168.618z" />
<glyph unicode="&#xe908;" glyph-name="iconfont-sitting" d="M1004.253 531.102l-132.672 21.674c-7.798 27.015-18.563 52.997-32.122 77.526l77.434 110.374c5.71 8.135 4.748 19.197-2.282 26.227l-86.582 86.541c-7.092 7.092-18.276 7.992-26.412 2.139l-108.747-78.16c-24.723 13.763-50.899 24.641-78.078 32.47l-23.157 132.16c-1.719 9.783-10.223 16.925-20.159 16.925h-122.439c-10.028 0-18.583-7.265-20.19-17.161l-21.459-131.444c-27.384-7.777-53.601-18.542-78.232-32.132l-108.43 77.464c-8.146 5.812-19.3 4.891-26.371-2.18l-86.582-86.541c-7.020-7.020-7.992-18.072-2.302-26.207l76.328-109.156c-13.856-24.918-24.825-51.309-32.736-78.723l-130.912-21.807c-9.875-1.637-17.11-10.182-17.11-20.19v-122.428c0-9.926 7.122-18.42 16.895-20.149l130.901-23.198c7.859-27.404 18.819-53.785 32.715-78.723l-77.26-108.061c-5.812-8.146-4.902-19.289 2.169-26.371l86.551-86.633c7.020-7.030 18.082-8.002 26.217-2.292l109.32 76.564c24.836-13.743 51.114-24.6 78.395-32.388l21.909-131.587c1.637-9.875 10.182-17.11 20.18-17.11h122.439c9.916 0 18.409 7.122 20.149 16.895l23.464 132.221c27.271 7.931 53.427 18.88 78.037 32.664l110.098-77.249c8.135-5.72 19.197-4.748 26.227 2.282l86.561 86.633c7.092 7.092 7.992 18.286 2.139 26.422l-78.529 109.054c13.569 24.57 24.304 50.562 32.029 77.567l132.835 23.301c9.793 1.719 16.936 10.223 16.936 20.159v122.428c0 10.028-7.276 18.583-17.171 20.2zM980.492 405.665l-128.773-22.584c-7.982-1.402-14.388-7.378-16.332-15.237-7.951-32.122-20.62-62.77-37.637-91.105-4.206-7.010-3.837-15.851 0.941-22.492l76.073-105.656-62.104-62.156-106.762 74.916c-6.662 4.677-15.452 4.963-22.4 0.727-28.233-17.192-58.953-30.065-91.32-38.241-7.798-1.975-13.723-8.34-15.135-16.271l-22.728-128.108h-87.933l-21.223 127.504c-1.341 8.064-7.347 14.551-15.288 16.516-32.357 7.982-63.261 20.742-91.842 37.913-6.928 4.175-15.657 3.868-22.277-0.778l-105.922-74.19-62.145 62.207 74.865 104.715c4.758 6.651 5.096 15.503 0.849 22.503-17.355 28.663-30.239 59.649-38.292 92.077-1.944 7.849-8.33 13.815-16.291 15.227l-126.839 22.482v87.933l126.788 21.111c8.043 1.341 14.521 7.317 16.496 15.227 8.125 32.51 21.019 63.527 38.313 92.179 4.185 6.928 3.889 15.667-0.747 22.298l-73.975 105.789 62.186 62.145 105.032-75.039c6.641-4.738 15.462-5.086 22.451-0.88 28.284 17.007 59.178 29.696 91.811 37.709 7.961 1.955 13.999 8.483 15.319 16.578l20.783 127.361h87.851l22.441-128.057c1.392-7.972 7.347-14.367 15.206-16.332 32.265-8.043 63.066-20.865 91.535-38.098 7.010-4.247 15.882-3.899 22.543 0.89l105.38 75.755 62.125-62.094-75.049-106.976c-4.646-6.621-4.963-15.36-0.788-22.288 16.987-28.284 29.676-58.942 37.719-91.095 1.975-7.931 8.483-13.927 16.557-15.237l128.537-20.998v-87.851zM694.938 448.756c0-11.308-9.159-20.466-20.466-20.466-11.297 0-20.466 9.159-20.466 20.466 0 78.723-64.049 142.772-142.772 142.772s-142.772-64.049-142.772-142.772 64.049-142.772 142.772-142.772c32.94 0 63.885 10.898 89.488 31.518 8.8 7.092 21.684 5.71 28.775-3.101 7.092-8.8 5.7-21.684-3.101-28.775-32.48-26.166-73.381-40.574-115.163-40.574-101.297 0-183.704 82.407-183.704 183.704s82.407 183.704 183.704 183.704 183.704-82.407 183.704-183.704z" />
<glyph unicode="&#xe909;" glyph-name="iconfont-toys" d="M522.667 116.659v0c117.724 0 208.411 68.016 208.411 143.775s-90.688 143.775-208.411 143.775c-117.724 0-208.411-68.016-208.411-143.775s90.688-143.775 208.411-143.775v0zM522.667 66.526v0c-142.79 0-258.545 86.816-258.545 193.909s115.754 193.909 258.545 193.909c142.79 0 258.545-86.816 258.545-193.909s-115.754-193.909-258.545-193.909v0zM328.758 461.594c49.542 0 89.703 40.161 89.703 89.703s-40.161 89.703-89.703 89.703c-49.542 0-89.703-40.161-89.703-89.703s40.161-89.703 89.703-89.703v0zM328.758 511.728c-21.854 0-39.57 17.716-39.57 39.57s17.716 39.57 39.57 39.57c21.854 0 39.57-17.716 39.57-39.57s-17.716-39.57-39.57-39.57v0zM716.575 461.594c49.542 0 89.703 40.161 89.703 89.703s-40.161 89.703-89.703 89.703c-49.542 0-89.703-40.161-89.703-89.703s40.161-89.703 89.703-89.703v0zM716.575 511.728c-21.854 0-39.57 17.716-39.57 39.57s17.716 39.57 39.57 39.57c21.854 0 39.57-17.716 39.57-39.57s-17.716-39.57-39.57-39.57v0zM932.149 192.841c44.272 68.626 68.038 147.296 68.038 229.184 0 246.31-214.191 445.202-477.52 445.202s-477.52-198.892-477.52-445.202c0-246.31 214.191-445.202 477.52-445.202 121.86 0 236.674 42.754 324.363 118.448 10.48 9.046 11.642 24.875 2.596 35.354s-24.875 11.642-35.354 2.596c-78.59-67.839-181.779-106.265-291.604-106.265-236.437 0-427.387 177.31-427.387 395.069s190.95 395.069 427.387 395.069c236.437 0 427.387-177.31 427.387-395.069 0-72.124-20.922-141.383-60.032-202.007-7.505-11.633-4.158-27.148 7.475-34.653s27.148-4.158 34.653 7.475v0zM933.297 618.855c41.982 33.921 66.889 84.922 66.889 139.958 0 99.33-80.523 179.853-179.853 179.853-72.895 0-137.725-43.774-165.672-109.752l46.163-19.554c20.162 47.598 66.923 79.172 119.51 79.172 71.642 0 129.72-58.078 129.72-129.72 0-39.728-17.939-76.461-48.264-100.963l31.508-38.995zM131.926 657.85c-30.325 24.502-48.264 61.235-48.264 100.963 0 71.642 58.078 129.72 129.72 129.72 52.586 0 99.348-31.574 119.51-79.172l46.163 19.554c-27.947 65.977-92.778 109.752-165.672 109.752-99.33 0-179.853-80.523-179.853-179.853 0-55.036 24.907-106.037 66.889-139.958l31.508 38.995zM534.522 267.788c38.24 0 69.24 31 69.24 69.24s-31 69.24-69.24 69.24c-38.24 0-69.24-31-69.24-69.24s31-69.24 69.24-69.24v0zM534.522 317.921c-10.553 0-19.107 8.555-19.107 19.107s8.555 19.107 19.107 19.107c10.553 0 19.107-8.555 19.107-19.107s-8.555-19.107-19.107-19.107v0z" />
<glyph unicode="&#xe90a;" glyph-name="iconfont-tiwenji" d="M512.348 924.658c-101.949 0-184.593-82.644-184.593-184.593v-360.185c0-47.247 17.756-90.343 46.956-122.99 9.733-10.882 19.107-12.869 25.904-25.836 2.724-5.195 6.875-26.559 6.875-26.559v-128.983c0-57.911 46.946-104.858 104.858-104.858s104.858 46.946 104.858 104.858v128.983c0 0 5.014 21.364 7.738 26.559 6.51 12.417 14.373 14.132 23.796 24.458 29.939 32.807 48.202 76.453 48.202 124.369v360.185c0.001 101.949-82.644 184.593-184.592 184.593zM607.573 293.079c-0.597-0.654-1.682-1.525-3.708-3.135-7.036-5.59-18.811-14.947-28.282-33.013-1.95-3.719-6.006-11.456-12.636-39.701l-1.474-6.283v-135.436c0-27.088-22.038-49.125-49.127-49.125v148.212h-49.125v35.264l-1.023 5.266c-5.708 29.381-10.11 37.775-12.225 41.809-9.804 18.702-22.49 28.394-30.069 34.185-1.383 1.057-3.277 2.505-3.652 2.924-21.129 23.625-32.766 54.109-32.766 85.838v360.185c0 71.054 57.807 128.861 128.863 128.861s128.863-57.807 128.863-128.861v-2.588h-60.778v-22.938h60.778v-85.429h-60.778v-22.938h60.778v-85.429h-60.778v-22.938h60.778v-85.428h-60.778v-22.938h60.778v-9.558c0-32.207-11.945-63.034-33.635-86.802zM512.347 783.705c-11.706 0-21.281-9.776-21.281-21.853v-505.223c0-12.046 9.574-21.853 21.281-21.853 11.738 0 21.282 9.807 21.282 21.853v505.223c0 12.077-9.545 21.853-21.282 21.853z" />
<glyph unicode="&#xe90b;" glyph-name="iconfont-3" d="M369.342 768.741h591.655v-37.374h-591.655v37.374zM181.675 860.978l36.042-73.034 80.583-11.709-58.311-56.839 13.764-80.266-72.078 37.898-72.079-37.898 13.764 80.266-58.311 56.839 80.584 11.709zM369.342 471.667h591.655v-37.374h-591.655v37.374zM181.675 563.904l36.042-73.034 80.583-11.71-58.311-56.838 13.764-80.267-72.078 37.899-72.079-37.899 13.764 80.267-58.311 56.838 80.584 11.71zM369.342 176.509h591.655v-37.374h-591.655v37.374zM181.675 268.746l36.042-73.034 80.583-11.708-58.311-56.84 13.764-80.265-72.078 37.897-72.079-37.897 13.764 80.265-58.311 56.84 80.584 11.708z" />
<glyph unicode="&#xe90c;" glyph-name="iconfont-atmaway2" d="M784.13 332.8v0c-20.69 0-37.463 44.891-37.463 100.267s16.773 100.267 37.463 100.267c20.69 0 37.463-44.891 37.463-100.267s-16.773-100.267-37.463-100.267v0zM506.797 293.867v0c-20.69 0-37.463 39.28-37.463 87.733s16.773 87.733 37.463 87.733c20.69 0 37.463-39.28 37.463-87.733s-16.773-87.733-37.463-87.733v0zM298.176 789.32c-149.272-73.128-245.851-210.105-250.381-363.22-0.112-3.774-0.168-7.555-0.168-11.34 0-13.152 10.662-23.814 23.814-23.814s23.814 10.662 23.814 23.814c0 3.316 0.049 6.627 0.147 9.932 3.983 134.635 89.69 256.193 223.727 321.857 11.811 5.786 16.695 20.051 10.909 31.862s-20.051 16.695-31.862 10.909v0zM495.753-12.469c13.276-0.947 26.637-1.422 40.061-1.422 268.947 0 488.186 191.132 488.186 428.651s-219.239 428.651-488.186 428.651c3.48 0 4.717-0.554 4.64-0.498-2.031 1.485-4.352 3.51-10.561 9.169-17.272 15.74-28.080 24.576-44.793 35.226-51.359 32.726-118.725 51.359-211.239 51.359-13.152 0-23.814-10.662-23.814-23.814s10.662-23.814 23.814-23.814c83.664 0 142.135-16.172 185.645-43.897 11.547-7.358 59.83-51.359 76.309-51.359 243.985 0 440.558-171.372 440.558-381.023s-196.574-381.023-440.558-381.023c-12.294 0-24.526 0.436-36.674 1.302-13.119 0.935-24.512-8.941-25.447-22.060s8.941-24.512 22.060-25.447v0zM238.14-61.519c131.521 0 238.14 106.619 238.14 238.14s-106.619 238.14-238.14 238.14c-131.521 0-238.14-106.619-238.14-238.14s106.619-238.14 238.14-238.14v0zM238.14-13.891c-105.217 0-190.512 85.295-190.512 190.512s85.295 190.512 190.512 190.512c105.217 0 190.512-85.295 190.512-190.512s-85.295-190.512-190.512-190.512v0zM214.326 281.402v-142.884c0-13.152 10.662-23.814 23.814-23.814s23.814 10.662 23.814 23.814v142.884c0 13.152-10.662 23.814-23.814 23.814s-23.814-10.662-23.814-23.814v0zM303.689 125.623l-66.679 76.205c-8.661 9.898-23.705 10.901-33.603 2.24s-10.901-23.705-2.24-33.603l66.679-76.205c8.661-9.898 23.705-10.901 33.603-2.24s10.901 23.705 2.24 33.603v0z" />
<glyph unicode="&#xe90d;" glyph-name="iconfont-bmi" d="M561.472 793.284c0-4.698-6.109-8.506-13.646-8.506h-463.935c-7.537 0-13.646 3.808-13.646 8.506v0c0 4.698 6.109 8.506 13.646 8.506h463.935c7.537 0.001 13.646-3.807 13.646-8.505v0zM88.276 1.654h-22.229v872.167c0 11.535 4.977 20.886 11.116 20.886v0c6.138 0 11.115-9.351 11.115-20.886v-872.167zM518.822 641.758c39.882 0 80.503 34.269 80.503 70.548 0 36.265-38.684 73.226-78.563 73.226-39.861 0-79.513-37.829-79.513-74.089 0-36.288 37.714-69.684 77.574-69.684zM674.499 431.7c0 35.376 0 72.847 0 108.822 0 35.576 2.558 32.163 0 54.413-9.77 27.216-29.347 36.278-48.92 36.278-41.864 0-55.734 0-88.069 0-39.322 0-58.415 0.113-97.563 0.113-19.556 0-32.318 1.186-46.827-11.025-19.817-20.801-17.828-22.618-17.828-80.667 0-28.677 0-78.738 0-110.739 0-28.66-5.222-73.24 25.748-73.24 29.38 0 29.103 19.438 29.103 48.378 0 40.88-0.104 51.487-0.104 75.629 0 26.401-1.625 30.889 4.099 30.889 5.776 0 5.724-0.352 5.724-28.404 0-26-0.207-392.049-0.207-413.217 0-18.141 10.426-37.562 39.911-37.562 29.397 0 41.657 15.926 41.657 34.068 0 32.674 0 174.956 0 190.437 0 18.138 0.657 26.936 5.497 26.936 4.928 0 4.288-8.798 4.288-26.936 0-16.346 0-156.914 0-190.437 0-11.265 12.917-35.783 42.281-35.783 19.575 0 37.575 23.316 37.575 35.398 0 72.545 0.449 395.368 0.449 418.186 0 12.363-1.141 28.075 3.856 28.075 4.98 0 4.894-4.263 4.894-22.097 0-20.448 0-41.161 0-69.845 0-47.703 7.99-60.221 27.565-60.221 29.36-0.001 26.872 46.583 26.872 72.551zM959.543 21.452c0-11.522-9.25-20.863-20.659-20.863h-845.924c-11.41 0-20.659 9.341-20.659 20.863v0c0 11.522 9.249 20.863 20.659 20.863h845.924c11.409 0 20.659-9.34 20.659-20.863v0zM179.25 482.654v0zM170.518 731.625h-86.931v-20.466h86.931c7.358 0 13.323 4.581 13.323 10.233s-5.966 10.233-13.324 10.233zM170.518 670.226h-86.931v-20.466h86.931c7.358 0 13.323 4.581 13.323 10.233s-5.966 10.233-13.324 10.233zM170.518 608.828h-86.931v-20.466h86.931c7.358 0 13.323 4.581 13.323 10.233s-5.966 10.233-13.324 10.233zM170.518 547.43h-86.931v-20.466h86.931c7.358 0 13.323 4.581 13.323 10.233s-5.966 10.233-13.324 10.233zM170.518 486.031h-86.931v-20.466h86.931c7.358 0 13.323 4.581 13.323 10.233s-5.966 10.233-13.324 10.233zM202.288 424.633h-118.701v-20.466h118.701c10.047 0 18.191 4.581 18.191 10.233s-8.143 10.233-18.191 10.233zM170.518 363.234h-86.931v-20.466h86.931c7.358 0 13.323 4.581 13.323 10.233s-5.966 10.233-13.324 10.233zM170.518 301.836h-86.931v-20.466h86.931c7.358 0 13.323 4.581 13.323 10.233s-5.966 10.233-13.324 10.233zM170.518 240.438h-86.931v-20.466h86.931c7.358 0 13.323 4.581 13.323 10.233s-5.966 10.233-13.324 10.233zM170.518 179.039h-86.931v-20.466h86.931c7.358 0 13.323 4.581 13.323 10.233s-5.966 10.233-13.324 10.233zM170.518 117.641h-86.931v-20.466h86.931c7.358 0 13.323 4.581 13.323 10.233s-5.966 10.233-13.324 10.233z" />
<glyph unicode="&#xe90e;" glyph-name="iconfont-body_pressure" d="M945.462 773.123l-113.975 113.972c-16.178 16.177-42.407 16.176-58.585 0l-696.753-696.726c-16.176-16.176-16.177-42.404 0-58.579l113.976-113.972c16.177-16.178 42.406-16.178 58.584 0l696.753 696.724c16.178 16.176 16.178 42.405 0 58.581zM887.441 674.087c-3.994-3.995-10.472-3.995-14.465 0l-47.016 47.013-25.831-25.831 40.815-40.813c3.994-3.995 3.994-10.471 0-14.468-3.995-3.994-10.473-3.994-14.467 0l-40.815 40.814-24.799-24.798 40.815-40.813c3.995-3.995 3.995-10.473 0-14.466-3.994-3.995-10.472-3.995-14.466 0l-40.815 40.814-24.799-24.798 40.815-40.814c3.995-3.995 3.995-10.471 0-14.466s-10.472-3.994-14.466 0l-40.816 40.814-24.797-24.797 40.815-40.814c3.994-3.996 3.994-10.471 0-14.468-3.996-3.994-10.472-3.994-14.467 0l-40.816 40.814-24.798-24.798 53.214-53.212c3.996-3.995 3.996-10.471 0-14.466-3.992-3.994-10.471-3.994-14.465 0l-53.216 53.213-24.798-24.798 40.815-40.814c3.994-3.995 3.994-10.471 0-14.466s-10.471-3.994-14.468 0l-40.815 40.814-24.797-24.797 40.815-40.814c3.994-3.994 3.994-10.471 0-14.468-3.994-3.993-10.471-3.993-14.468 0l-40.815 40.814-24.798-24.797 40.815-40.814c3.996-3.995 3.996-10.471 0-14.466-3.993-3.995-10.472-3.995-14.465 0l-40.816 40.815-24.799-24.798 40.816-40.815c3.995-3.994 3.995-10.469 0-14.465s-10.472-3.996-14.468 0l-40.815 40.814-24.798-24.797 53.216-53.214c3.994-3.994 3.994-10.47 0-14.465-3.996-3.995-10.473-3.995-14.469 0l-53.215 53.213-24.798-24.796 40.815-40.815c3.994-3.995 3.994-10.471 0-14.468-3.995-3.992-10.472-3.992-14.467 0l-40.816 40.815-24.798-24.797 40.815-40.814c3.995-3.995 3.995-10.47 0-14.468-3.994-3.994-10.472-3.994-14.467 0l-40.815 40.815-24.798-24.797 53.215-53.211c3.995-3.994 3.995-10.471 0-14.465s-10.472-3.995-14.467 0l-53.215 53.213-35.986-35.984c4.751-20.413-0.856-42.79-16.822-58.755-24.539-24.538-64.228-24.631-88.648-0.212-24.419 24.417-24.324 64.104 0.216 88.643 15.965 15.966 38.343 21.571 58.758 16.821l35.984 35.981-48.048 48.046c-3.994 3.996-3.994 10.471 0 14.468 3.995 3.993 10.472 3.993 14.467 0l48.048-48.046 24.798 24.797-35.647 35.646c-3.995 3.995-3.995 10.473 0 14.465 3.994 3.995 10.471 3.995 14.466 0l35.647-35.646 24.799 24.798-35.647 35.646c-3.995 3.996-3.995 10.471 0 14.468 3.995 3.993 10.472 3.993 14.467 0l35.647-35.647 24.798 24.797-48.048 48.046c-3.994 3.994-3.994 10.471 0 14.465s10.473 3.995 14.467 0l48.048-48.045 24.798 24.797-35.647 35.646c-3.994 3.995-3.994 10.471 0 14.465 3.995 3.995 10.472 3.995 14.467 0l35.647-35.646 24.799 24.798-35.647 35.646c-3.995 3.995-3.995 10.471 0 14.466s10.472 3.994 14.466 0l35.648-35.647 24.798 24.797-35.646 35.646c-3.995 3.994-3.995 10.471 0 14.466 3.995 3.994 10.472 3.994 14.467 0l35.647-35.646 24.797 24.797-35.647 35.646c-3.993 3.994-3.993 10.471 0 14.465 3.995 3.996 10.472 3.996 14.467 0l35.647-35.646 24.799 24.798-48.048 48.045c-3.993 3.995-3.993 10.471 0 14.466 3.995 3.994 10.473 3.994 14.467 0l48.048-48.046 24.798 24.798-35.647 35.646c-3.995 3.995-3.995 10.473 0 14.466 3.995 3.995 10.471 3.995 14.467 0l35.647-35.646 24.798 24.797-35.647 35.646c-3.996 3.995-3.996 10.471 0 14.465 3.994 3.996 10.471 3.996 14.466 0l35.647-35.646 24.799 24.798-35.647 35.646c-3.994 3.994-3.994 10.471 0 14.465s10.471 3.995 14.467 0l35.647-35.646 24.799 24.798-35.647 35.646c-3.995 3.994-3.995 10.471 0 14.465 3.993 3.995 10.472 3.995 14.465 0l35.648-35.646 25.831 25.83-48.048 48.046c-3.993 3.995-3.993 10.471 0 14.466 3.996 3.994 10.473 3.994 14.467 0l47.781-47.779c13.193 10.681 32.543 9.934 44.754-2.277 12.213-12.213 12.959-31.562 2.278-44.754l46.749-46.746c3.995-3.99 3.995-10.466 0-14.461z" />
<glyph unicode="&#xe90f;" glyph-name="iconfont-emoji2" d="M964.296 639.757c-24.662 58.328-59.976 110.701-104.95 155.676s-97.347 80.289-155.676 104.961c-60.396 25.542-124.536 38.497-190.652 38.497s-130.257-12.955-190.652-38.497c-58.328-24.672-110.701-59.986-155.676-104.961s-80.289-97.347-104.95-155.676c-25.552-60.396-38.497-124.536-38.497-190.652 0-66.106 12.945-130.257 38.497-190.642 24.662-58.328 59.976-110.701 104.95-155.676s97.347-80.289 155.676-104.95c60.396-25.552 124.536-38.497 190.652-38.497s130.257 12.945 190.652 38.497c58.328 24.662 110.701 59.976 155.676 104.95s80.289 97.347 104.95 155.676c25.552 60.385 38.507 124.536 38.507 190.642 0 66.116-12.955 130.257-38.507 190.652zM926.598 274.406c-22.605-53.447-54.972-101.451-96.191-142.68-41.229-41.219-89.232-73.586-142.68-96.191-55.33-23.403-114.109-35.263-174.709-35.263s-119.379 11.86-174.709 35.263c-53.447 22.605-101.451 54.972-142.68 96.191-41.219 41.229-73.586 89.232-96.191 142.68-23.403 55.32-35.263 114.099-35.263 174.699 0 60.61 11.86 119.389 35.263 174.709 22.605 53.447 54.972 101.451 96.201 142.68 41.219 41.229 89.222 73.596 142.669 96.201 55.33 23.393 114.109 35.263 174.709 35.263s119.379-11.87 174.709-35.263c53.447-22.605 101.451-54.972 142.68-96.201 41.219-41.229 73.586-89.232 96.191-142.68 23.403-55.32 35.273-114.099 35.273-174.709 0-60.6-11.87-119.379-35.273-174.699zM794.939 314.786c-1.115-1.566-27.793-38.568-75.51-75.684-28.11-21.868-57.827-39.315-88.301-51.861-38.456-15.841-78.191-23.864-118.11-23.864s-79.654 8.023-118.11 23.864c-30.474 12.546-60.191 29.993-88.301 51.861-47.717 37.115-74.394 74.118-75.51 75.684-6.57 9.189-4.441 21.981 4.758 28.55 9.189 6.559 21.96 4.441 28.54-4.738 0.113-0.164 6.365-8.78 18-21.541 11.625-12.761 28.653-29.655 50.326-46.397 25.112-19.412 51.513-34.833 78.457-45.854 33.268-13.6 67.528-20.497 101.839-20.497s68.572 6.897 101.839 20.497c26.944 11.021 53.345 26.442 78.467 45.854 43.337 33.483 68.081 67.6 68.326 67.937 6.58 9.169 19.361 11.277 28.54 4.707 9.179-6.58 11.308-19.33 4.748-28.52zM737.45 510.319c0-33.8-27.425-61.214-61.204-61.214s-61.204 27.414-61.204 61.214c0 33.81 27.425 61.214 61.204 61.214s61.204-27.404 61.204-61.214zM410.974 510.319c0-33.8-27.425-61.214-61.204-61.214s-61.204 27.414-61.204 61.214c0 33.81 27.425 61.214 61.204 61.214s61.204-27.404 61.204-61.214z" />
<glyph unicode="&#xe910;" glyph-name="iconfont-filter2" d="M1024 840.448c0-32-12.544-61.952-35.072-84.48l-323.328-307.482v-486.886c0-14.080-11.52-25.6-25.6-25.6s-25.6 11.52-25.6 25.6v497.894c0 6.912 2.816 13.824 7.936 18.432l330.752 314.65c12.544 12.544 19.712 29.696 19.712 47.872 0 37.632-30.72 68.352-68.352 68.352 0 0-784.128 0-784.896 0-37.632 0-68.352-30.72-68.352-68.352 0-18.176 7.168-35.328 19.968-48.384l305.152-314.88c4.864-4.864 7.68-11.52 7.68-18.432v-369.152c0-14.336-11.52-25.6-25.6-25.6s-25.6 11.264-25.6 25.6v358.4l-297.472 307.712c-22.784 22.784-35.328 52.736-35.328 84.736 0 66.048 53.76 119.552 119.552 119.552 0.768 0 784.896 0 784.896 0 66.048 0 119.552-53.504 119.552-119.552z" />
<glyph unicode="&#xe911;" glyph-name="iconfont-guolv" d="M1024 810.496q0-24.576-13.312-46.080l-1.024-1.024q0-1.024-0.512-1.536t-0.512-1.536l-368.64-443.392v-209.92q0-45.056-25.088-76.8t-70.144-31.744q-46.080 0-71.68 31.744t-25.6 76.8v210.944l-364.544 440.32q-18.432 23.552-18.432 52.224 0 18.432 7.168 34.304t18.944 27.648 27.648 18.432 34.304 6.656h783.36q36.864 0 62.464-25.6t25.6-61.44z" />
<glyph unicode="&#xe912;" glyph-name="iconfont-iconfont1zhuanhuan" d="M164.032 832h184v-448h-184v448zM0 384l256-384 256 384h-512zM1024 512l-256 384-256-384h512zM676.032 513.024h184v-448h-184v448z" />
<glyph unicode="&#xe913;" glyph-name="iconfont-interactivescreen3" d="M0 794.293v-542.317h963.264v542.317h-963.264zM902.578 312.661h-842.856v420.946h842.856v-420.946zM374.965 192.254l-109.486-90.547h460.423l-109.486 90.547z" />
<glyph unicode="&#xe914;" glyph-name="iconfont-jiadiantizhongcheng" d="M113.778 818.016c0 15.504 12.729 28.206 28.206 28.206h740.032c15.504 0 28.206-12.729 28.206-28.206v-740.032c0-15.504-12.729-28.206-28.206-28.206h-740.032c-15.504 0-28.206 12.729-28.206 28.206v740.032zM56.889 818.016v-740.032c0-46.868 38.145-85.095 85.095-85.095h740.032c46.868 0 85.095 38.145 85.095 85.095v740.032c0 46.868-38.145 85.095-85.095 85.095h-740.032c-46.868 0-85.095-38.145-85.095-85.095v0zM853.333 448c0 188.513-152.82 341.333-341.333 341.333s-341.333-152.82-341.333-341.333c0-15.709 12.735-28.444 28.444-28.444s28.444 12.735 28.444 28.444c0 157.094 127.35 284.444 284.444 284.444s284.444-127.35 284.444-284.444c0-15.709 12.735-28.444 28.444-28.444s28.444 12.735 28.444 28.444v0zM468.107 435.721l-122.484 104.987c-11.927 10.224-29.884 8.842-40.108-3.085s-8.842-29.884 3.085-40.108l123.654-105.989c-3.083-8.772-4.76-18.206-4.76-28.032 0-46.672 37.835-84.507 84.507-84.507s84.507 37.835 84.507 84.507c0 46.672-37.835 84.507-84.507 84.507-16.074 0-31.1-4.488-43.893-12.279z" />
<glyph unicode="&#xe915;" glyph-name="iconfont-jiadianxinlv" d="M85.333 397.317h184.639c15.709 0 28.444 12.735 28.444 28.444s-12.735 28.444-28.444 28.444h-184.639c-15.709 0-28.444-12.735-28.444-28.444s12.735-28.444 28.444-28.444v0zM772.586 396.382h135.794c15.709 0 28.444 12.735 28.444 28.444s-12.735 28.444-28.444 28.444h-135.794c-15.709 0-28.444-12.735-28.444-28.444s12.735-28.444 28.444-28.444v0zM297.551 417.864l113.562 449.84c3.845 15.232-5.385 30.696-20.617 34.542s-30.696-5.385-34.542-20.617l-113.562-449.84c-3.845-15.232 5.385-30.696 20.617-34.542s30.696 5.385 34.542 20.617v0zM355.534 869.662l147.765-826.733c2.764-15.464 17.541-25.76 33.005-22.996s25.76 17.541 22.996 33.005l-147.765 826.733c-2.764 15.464-17.541 25.76-33.005 22.996s-25.76-17.541-22.996-33.005v0zM558.983 41.397l116.769 494.597c3.61 15.289-5.859 30.61-21.148 34.219s-30.61-5.859-34.219-21.148l-116.769-494.597c-3.61-15.289 5.859-30.61 21.148-34.219s30.61 5.859 34.219 21.148v0zM628.528 521.859l124.518-117.704c11.416-10.792 29.419-10.285 40.211 1.131s10.285 29.419-1.131 40.211l-124.518 117.704c-11.416 10.792-29.419 10.285-40.211-1.131s-10.285-29.419 1.131-40.211v0z" />
<glyph unicode="&#xe916;" glyph-name="iconfont-liangxieya" d="M773.306 678.562c37.477-0.016 74.986 0.089 112.476-0.029 49.136-0.18 86.984-38.194 87.016-87.403 0.059-72.597 0.059-145.181 0-217.776-0.045-48.46-38.105-86.747-86.569-87.164-12.284-0.103-24.567-0.147-36.882 0.044-4.074 0.061-5.731-0.908-5.88-5.432-3.717-122.596-68.058-207.017-170.238-266.178-68.373-39.583-143.163-58.807-222.013-55.434-109.494 4.717-202.717 46.896-274.927 130.838-27.251 31.7-44.669 68.49-48.285 111.012-4.163 49.285 9.958 91.79 46.211 126.029 5.521 5.223 6.701 9.613 5.148 16.955-12.372 58.926-16.716 118.626-16.538 178.746 0.045 15.283-0.12 30.597 0.135 45.88 0.059 4.269-1.149 5.462-5.493 5.612-16.375 0.582-21.106 4.447-19.462 20.492 1.864 18.135-3.79 27.358-20.894 36.373-53.806 28.329-77.896 91.821-60.227 150.104 17.269 56.924 72.927 95.328 132.432 91.357 58.671-3.925 108.434-47.926 118.927-105.134 10.971-59.791-19.702-118.447-75.298-142.805-6.805-2.983-9.701-6.208-9.016-13.612 0.642-7.133 0.178-14.387 0.137-21.596-0.061-8.433-4.479-13.716-12.569-15-3.923-0.626-5.491-1.119-5.522-5.627-0.494-67.223 0.177-134.345 12.552-200.761 0.656-3.612 0.15-7.671 6.060-4.284 32.836 18.76 68.209 31.925 103.134 46.015 22.149 8.956 43.405 19.208 57.881 39.312 2.403 3.344 4.267 1.94 6.641 0.568 9.327-5.403 18.522-11.059 28.060-16.074 4.836-2.553 3.819-4.805 1.359-8.284-12.853-18.313-29.746-31.88-49.284-42.388-22.747-12.238-47.329-20.118-70.987-30.195-22.297-9.505-44.298-19.639-64.895-32.582-3.76-2.359-6.475-4.388-4.805-9.88 12.121-40.044 27.822-78.476 52.36-112.626 45.282-62.988 106.088-96.343 184.537-94.91 56.326 1.043 110.775 11.223 161.789 35.981 39.33 19.077 72.731 45.179 94.926 83.778 10.268 17.835 16.596 37.028 19.255 57.508 0.567 4.492-0.061 5.821-5.045 6.447-21.031 2.554-33.029 16.985-33.074 38.761-0.060 14.911-0.060 14.939-14.97 14.939-24.598 0.030-49.193-0.103-73.79 0.045-35.836 0.225-62.283 26.777-62.433 62.688-0.134 23.089 0.090 46.194-0.134 69.284-0.016 4.611 1.149 7.537 5.089 10.402 38.029 27.703 64.090 64.224 78.283 109 2.091 6.583 5.046 7.956 11.272 7.926 49.489-0.224 98.998-0.090 148.474-0.149 22.673-0.030 37.629-15.090 37.794-37.762 0.147-19.776 0.147-19.776 20.060-19.761 9.911 0 19.805-0.12 29.699 0.029 25.91 0.388 43.852 19.583 43.836 46.762-0.016 27.597-17.522 46.581-43.715 46.627-76.18 0.165-152.373 0.194-228.569-0.075-7.268-0.014-10.21 1.285-9.074 9.165 1.314 9.254 0.149 18.671-1.641 27.732-1.255 6.373 1.042 6.613 6.089 6.596 40.192-0.161 80.387-0.085 120.598-0.085zM458.707 453.145c5.15 3.223 7.494 8.597 9.912 13.598 7.103 14.596 16.223 23.97 33.671 28.805 34.628 9.583 58.806 34.777 77.926 64.374 22.074 34.162 35.106 71.507 28.15 112.297-3.078 18.031-5.567 33.359 6.611 48.852 4.925 6.269 1.882 14.194-5.266 18.506-14.614 8.776-29.389 17.3-44.315 25.477-7.374 4.045-13.986 1.791-18.85-4.941-2.089-2.897-3.97-6.030-5.389-9.299-4.045-9.239-9.538-16.105-20.806-16.373-3.432-0.075-6.926-1.73-10.238-3.105-50.27-20.984-79.613-60.565-96.954-110.357-7.793-22.344-12.21-46.179-5.464-68.865 5.685-19.135 1.97-33.791-9.18-48.387-0.909-1.194-1.505-2.584-2.237-3.898-5.418-9.894-3.775-16.969 5.865-22.702 13.358-7.954 26.911-15.567 40.39-23.344 2.627-1.522 5.358-2.642 9.136-2.583 2.015 0.151 4.623 0.421 7.040 1.944zM187.74 274.115c-18.105-28.507-21.479-59.312-13.001-91.459 11.209-42.361 37.656-74.733 70.867-101.465 78.864-63.462 168.627-90.061 269.429-75.343 71.104 10.358 135.717 36.508 190.718 83.522 57.775 49.375 92.149 111 94.594 188.358 0.090 3.015 3 7.972-4.148 8.567-6.613 0.567-7.999-2.448-8.463-8.060-1.329-15.894-4.969-31.327-10.508-46.271-20.837-56.252-60.865-95.402-112.224-123.682-67.925-37.418-141.566-51.418-218.312-48.269-63.941 2.64-118.88 27.941-164.417 73.060-29.746 29.491-51.956 64.149-68.792 102.299-6.851 15.476-12.642 31.417-19.225 47.94-2.414-3.389-4.624-6.184-6.518-9.197zM267.245 742.232c0.358 48.091-38.222 87.060-86.416 87.285-46.94 0.209-86.224-38.716-86.315-85.522-0.075-48.119 38.014-86.986 85.447-87.135 48.032-0.165 86.928 37.865 87.284 85.371zM871.172 498.474c-26.373 0.388-52.764 0.299-79.122-0.031-23.64-0.268-42.149-18.715-42.296-42.372-0.313-40.179 0.059-80.342-0.3-120.522-0.044-6.537 2.912-6.627 7.553-5.955 14.418 2.105 24.912 14.223 24.987 29.538 0.133 30.266 0.027 60.536 0 90.818-0.017 15.388 4.416 19.911 19.521 19.895 25.465-0.029 50.955-0.133 76.434 0.061 6.253 0.029 12.61 0.566 18.729 1.806 19.612 3.925 31.853 18.447 32.060 38.194-18.030-10.717-37.595-11.717-57.565-11.433zM182.456 771.905c-13.716 0.029-24.255 5.284-33.135 15.135-2.402 2.671-5.133 5.045-7.611 7.642-2.298 2.418-4.955 3.432-8.075 2.046-3.164-1.417-5.403-3.895-6.119-7.329-0.79-3.851 2.091-6.118 4.493-8.239 12.642-11.046 21.149-23.225 20.716-41.612-0.358-14.746 15.15-25.94 29.866-24.924 15.359 1.045 27.254 13.941 27.074 29.342-0.134 14.88-12.061 27.878-27.209 27.938z" />
<glyph unicode="&#xe917;" glyph-name="iconfont-miaojiesellercalendar2" d="M767.64 743.451h-63.060v48.095h-48.095v-48.095h-287.549v48.095h-48.095v-48.095h-48.115c-75.153 0-144.268-67.027-144.268-142.178v-367.002c0-75.153 69.115-130.387 144.268-130.387h494.915c75.153 0 128.298 55.235 128.298 130.387v367.001c-0.001 75.153-53.146 142.179-128.298 142.179zM848.865 234.271c0-48.701-32.525-82.291-81.226-82.291h-494.914c-48.701 0-96.172 33.59-96.172 82.291v367.001c0 48.701 47.471 94.083 96.172 94.083h48.114v-63.445h48.095v63.445h287.549v-63.445h48.095v63.445h63.060c48.701 0 81.226-45.382 81.226-94.083v-367.001zM272.744 552.093h96.191v-48.095h-96.191v48.095zM272.744 424.179h96.191v-48.095h-96.191v48.095zM272.744 296.266h96.191v-48.095h-96.191v48.095zM465.125 552.093h95.167v-48.095h-95.167v48.095zM465.125 424.179h95.167v-48.095h-95.167v48.095zM465.125 296.266h95.167v-48.095h-95.167v48.095zM656.484 552.093h96.191v-48.095h-96.191v48.095zM656.484 424.179h96.191v-48.095h-96.191v48.095z" />
<glyph unicode="&#xe918;" glyph-name="iconfont-order2" d="M418.142 824.761v-743.094c0-11.297-9.159-20.466-20.466-20.466-11.297 0-20.466 9.169-20.466 20.466v708.026l-223.275-223.285c-7.992-7.992-20.957-7.992-28.949 0s-7.992 20.957 0 28.949l258.211 258.201c5.853 5.853 14.644 7.603 22.298 4.441 7.644-3.162 12.628-10.622 12.638-18.89l0.010-14.347zM914.958 325.408l-258.211-258.211c-3.909-3.909-9.148-5.997-14.48-5.997-2.63 0-5.28 0.512-7.818 1.555-7.644 3.162-12.628 10.622-12.638 18.9l-0.010 14.347v743.084c0 11.308 9.159 20.466 20.466 20.466 11.297 0 20.466-9.159 20.466-20.466v-708.015l223.275 223.275c7.992 7.992 20.957 7.992 28.949 0s7.992-20.947 0-28.939z" />
<glyph unicode="&#xe919;" glyph-name="iconfont-paixu" d="M425.544 797.945h527.93c6.215 0 14.568-8.355 14.568-18.663s-8.353-18.663-14.568-18.663h-527.93c-14.401 0-22.756 8.355-22.756 18.663s8.355 18.663 22.756 18.663zM425.544 571.784h527.93c6.215 0 14.568-8.355 14.568-18.663s-8.353-18.663-14.568-18.663h-527.93c-14.401 0-22.756 8.355-22.756 18.663s8.355 18.663 22.756 18.663zM425.544 350.741h527.93c6.215 0 14.568-8.355 14.568-18.663s-8.353-18.663-14.568-18.663h-527.93c-14.401 0-22.756 8.355-22.756 18.663s8.355 18.663 22.756 18.663zM425.544 129.697h527.93c6.215 0 14.568-8.355 14.568-18.663s-8.353-18.663-14.568-18.663h-527.93c-14.401 0-22.756 8.355-22.756 18.663s8.355 18.663 22.756 18.663zM274.365 556.644h-149.181l-38.819-84.634h-56.648l172.427 370.356 166.333-370.356h-57.551l-36.562 84.634zM252.924 606.070l-51.683 118.488-54.166-118.488h105.849zM143.738 126.446h167.236v-49.427h-253.676l171.073 299.040h-143.088v49.426h229.527l-171.072-299.039z" />
<glyph unicode="&#xe91a;" glyph-name="iconfont-people22" d="M934.603 412.628c0 36.45-42.825 71.992-100.161 90.869-2.625 0.863-19.133 8.269-8.826 39.52h-0.129c26.913 27.531 47.465 71.958 47.465 115.604 0 67.209-44.887 102.398-97.070 102.398-52.194 0-96.839-35.189-96.839-102.398 0-43.881 20.454-88.393 47.509-115.928 10.547-27.525-8.328-37.754-12.255-39.196-13.661-4.903-26.767-10.832-38.753-17.533 0 11.735 0 21.699 0 25.131 0 36.439-47.634 71.987-104.972 90.857-2.625 0.87-19.131 8.274-8.826 39.52h-0.129c26.913 27.531 47.463 71.958 47.463 115.604 0 67.216-44.887 102.405-97.067 102.405-52.196 0-96.841-35.189-96.841-102.405 0-43.873 20.454-88.393 47.514-115.917 10.547-27.538-8.33-37.758-12.26-39.206-54.627-19.675-100.592-55.474-100.592-90.857 0-3.527 0-13.848 0-25.963-12.387 6.982-25.928 13.239-40.134 18.365-3.931 1.441-22.805 11.671-12.258 39.196 27.057 27.536 47.509 72.047 47.509 115.928 0 67.209-44.643 102.398-96.841 102.398-52.178 0-97.065-35.189-97.065-102.398 0-43.646 20.552-88.073 47.46-115.604h-0.127c10.307-31.251-6.203-38.656-8.828-39.52-57.334-18.877-100.156-54.417-100.156-90.869 0-9.551 0-159.123 0-168.618 0-0.354 0.178-0.601 0.195-0.959-0.017-0.671-0.195-1.348-0.195-2.020 0-91.373 103.734-169.841 252.193-204.513v50.996c0 41.693 53.259 79.578 106.035 98.586 0 0 5.638 2.273 8.39 8.33 2.273 4.969 2.111 11.25-0.48 18.684-29.57 30.861-48.604 77.883-48.604 120.38 0 76.411 52.774 110.61 105.083 110.61 52.423 0 105.313-34.2 105.313-110.61 0-42.016-18.875-88.744-48.235-119.707-5.703-18.557-0.178-26.090 4.109-27.625 51.006-16.798 110.593-52.723 110.593-98.647v-50.645c147.702 34.837 250.809 113.072 250.809 204.161 0 0.671-0.178 1.348-0.197 2.020 0.020 0.358 0.197 0.605 0.197 0.959 0.001 9.495 0.001 159.068 0.001 168.618z" />
<glyph unicode="&#xe91b;" glyph-name="iconfont-pulse" d="M41.984 461.6h56.32q22.528 0 36.352 4.096t27.136 15.36l16.384 16.384q10.24 10.24 21.504 23.552t23.040 27.136 22.016 26.112q20.48 25.6 36.864 19.968t24.576-24.064l45.056-123.904q34.816 97.28 61.44 176.128 11.264 33.792 22.528 66.048t20.48 59.392 15.36 45.056 7.168 23.040q5.12 17.408 15.36 28.16t22.528 10.752q13.312 0 27.648-7.68t18.432-31.232q1.024-6.144 4.096-32.768t8.192-66.56 10.752-88.576 11.776-98.816q13.312-117.76 30.72-263.168 22.528 73.728 40.96 134.144 7.168 25.6 14.848 50.688t14.336 46.080 10.752 35.328 6.144 18.432q5.12 16.384 12.288 24.576t19.456 11.264q23.552 6.144 35.328-6.656t11.776-26.112q0-11.264-2.048-19.456-1.024-4.096-1.024-7.168l36.864-100.352q1.024 1.024 3.072 4.096 3.072 5.12 10.24 21.504 8.192 17.408 27.136 23.040t36.352 4.608q11.264-1.024 22.528-1.024h47.104v-77.824q-6.144-1.024-12.288-1.024h-26.624q-14.336 1.024-26.624-7.68t-17.408-16.896q-4.096-8.192-14.336-31.744t-18.432-48.128q-4.096-12.288-13.312-16.384t-18.944-3.584-18.432 5.632-11.776 12.288-10.24 25.088-14.336 36.352q-9.216 21.504-18.432 46.080-26.624-84.992-48.128-156.672-9.216-30.72-18.432-60.416t-16.896-54.784-12.8-42.496-6.144-23.552q-5.12-24.576-19.456-38.912t-34.816-13.312q-21.504 2.048-30.72 18.432t-11.264 37.888q0 5.12-2.56 31.744t-6.656 67.584-8.704 91.136-9.728 102.4q-11.264 121.856-26.624 272.384-28.672-83.968-51.2-150.528-9.216-28.672-18.944-56.32t-17.408-50.176-12.8-37.888l-6.144-18.432q-5.12-13.312-13.824-24.576t-27.136-10.24q-18.432 0-27.648 12.8t-14.336 29.184q-3.072 8.192-11.264 31.744t-17.408 48.128q-11.264 28.672-23.552 63.488-7.168-9.216-15.36-18.432-7.168-8.192-15.36-17.92t-16.384-18.944q-16.384-19.456-30.72-26.624t-33.792-5.12q-10.24 1.024-27.136 0.512t-34.304-0.512q-19.456-1.024-43.008-1.024v79.872z" />
<glyph unicode="&#xe91c;" glyph-name="iconfont-rectangle52rectangle52" d="M417.575-26.263h-153.49v642.836h-187.47l340.96 342.526v-985.361zM607.189 921.634h153.49v-639.597h187.47l-340.96-342.526v982.122z" />
<glyph unicode="&#xe91d;" glyph-name="iconfont-shaixuan" d="M918.862 747.781c0.105 1.129 0.606 2.215 0.606 3.365 0 63.488-182.439 135.837-407.51 135.837s-407.51-72.349-407.51-135.837c0-1.526 0.606-3.009 0.815-4.514-1.881-12.225 1.714-24.471 10.553-34.106l343.813-373.823v-247.704c0-11.807 3.302-21.859 10.073-30.824l41.817-55.254c11.64-15.381 29.487-20.626 46.268-13.605s27.314 24.158 27.314 44.429v325.026l323.542 351.754c9.132 9.927 12.539 22.653 10.219 35.255zM511.958 657.105c-178.907 0-323.918 42.109-323.918 94.041s145.011 94.041 323.918 94.041 323.918-42.109 323.918-94.041-145.011-94.041-323.918-94.041z" />
<glyph unicode="&#xe91e;" glyph-name="iconfont-shengao" d="M64.004 895.995h35.688v-895.465h-35.688v895.465zM64.267 36.219h895.465v-35.688h-895.465v35.688zM610.159 666.253c-23.23 0-40.652-7.744-58.072-23.231-15.486-17.42-25.166-36.778-25.166-58.072v-199.386c0-7.739 1.936-13.547 7.744-19.356 5.808-5.805 11.612-7.74 19.357-7.74s15.485 1.936 21.294 7.74c3.872 5.809 7.744 11.618 7.744 19.356v178.093h13.549v-493.617c0-9.68 3.872-17.425 11.612-25.165 7.744-7.744 15.49-9.68 25.166-9.68 11.618 0 19.357 3.872 27.101 9.68 7.744 7.739 11.614 15.485 11.614 25.165v286.491h15.489v-286.491c0-9.68 3.868-17.425 11.614-25.165 7.744-5.808 17.421-9.68 27.101-9.68 9.676 0 17.421 3.872 25.166 9.68 7.74 7.739 9.676 15.485 9.676 25.165v493.617h15.485v-178.093c0-7.739 1.937-13.547 7.744-19.356 5.809-5.805 13.549-7.74 19.358-7.74 7.744 0 15.485 1.936 19.357 7.74 3.872 5.809 7.744 11.618 7.744 19.356v199.386c0 21.293-7.744 40.651-23.229 58.072-15.486 15.486-34.847 23.231-58.072 23.231h-139.377zM679.847 681.736c17.421 0 32.905 5.807 44.523 17.42 11.612 11.619 19.357 27.102 19.357 46.459 0 17.422-5.808 32.906-19.357 44.523-11.618 13.55-27.101 19.358-44.523 19.358s-32.906-5.808-44.524-19.358c-11.612-11.617-17.42-27.1-17.42-44.523 0-17.421 5.808-32.905 17.42-46.459 11.618-11.611 27.103-17.42 44.524-17.42v0zM97.645 831.911h670.010v-24.559h-670.010v24.559zM97.645 743.906h158.459v-24.559h-158.459v24.559zM97.645 666.135h158.459v-24.559h-158.459v24.559zM97.645 588.364h158.459v-24.559h-158.459v24.559zM97.645 510.593h224.973v-24.559h-224.973v24.559zM97.645 432.821h158.459v-24.559h-158.459v24.559zM97.645 355.050h158.459v-24.559h-158.459v24.559zM97.645 277.279h158.459v-24.559h-158.459v24.559zM97.645 199.507h158.459v-24.559h-158.459v24.559zM97.645 121.736h158.459v-24.559h-158.459v24.559z" />
<glyph unicode="&#xe91f;" glyph-name="iconfont-sitting2" d="M1004.253 531.102l-132.672 21.674c-7.798 27.015-18.563 52.997-32.122 77.526l77.434 110.374c5.71 8.135 4.748 19.197-2.282 26.227l-86.582 86.541c-7.092 7.092-18.276 7.992-26.412 2.139l-108.747-78.16c-24.723 13.763-50.899 24.641-78.078 32.47l-23.157 132.16c-1.719 9.783-10.223 16.925-20.159 16.925h-122.439c-10.028 0-18.583-7.265-20.19-17.161l-21.459-131.444c-27.384-7.777-53.601-18.542-78.232-32.132l-108.43 77.464c-8.146 5.812-19.3 4.891-26.371-2.18l-86.582-86.541c-7.020-7.020-7.992-18.072-2.302-26.207l76.328-109.156c-13.856-24.918-24.825-51.309-32.736-78.723l-130.912-21.807c-9.875-1.637-17.11-10.182-17.11-20.19v-122.428c0-9.926 7.122-18.42 16.895-20.149l130.901-23.198c7.859-27.404 18.819-53.785 32.715-78.723l-77.26-108.061c-5.812-8.146-4.902-19.289 2.169-26.371l86.551-86.633c7.020-7.030 18.082-8.002 26.217-2.292l109.32 76.564c24.836-13.743 51.114-24.6 78.395-32.388l21.909-131.587c1.637-9.875 10.182-17.11 20.18-17.11h122.439c9.916 0 18.409 7.122 20.149 16.895l23.464 132.221c27.271 7.931 53.427 18.88 78.037 32.664l110.098-77.249c8.135-5.72 19.197-4.748 26.227 2.282l86.561 86.633c7.092 7.092 7.992 18.286 2.139 26.422l-78.529 109.054c13.569 24.57 24.304 50.562 32.029 77.567l132.835 23.301c9.793 1.719 16.936 10.223 16.936 20.159v122.428c0 10.028-7.276 18.583-17.171 20.2zM980.492 405.665l-128.773-22.584c-7.982-1.402-14.388-7.378-16.332-15.237-7.951-32.122-20.62-62.77-37.637-91.105-4.206-7.010-3.837-15.851 0.941-22.492l76.073-105.656-62.104-62.156-106.762 74.916c-6.662 4.677-15.452 4.963-22.4 0.727-28.233-17.192-58.953-30.065-91.32-38.241-7.798-1.975-13.723-8.34-15.135-16.271l-22.728-128.108h-87.933l-21.223 127.504c-1.341 8.064-7.347 14.551-15.288 16.516-32.357 7.982-63.261 20.742-91.842 37.913-6.928 4.175-15.657 3.868-22.277-0.778l-105.922-74.19-62.145 62.207 74.865 104.715c4.758 6.651 5.096 15.503 0.849 22.503-17.355 28.663-30.239 59.649-38.292 92.077-1.944 7.849-8.33 13.815-16.291 15.227l-126.839 22.482v87.933l126.788 21.111c8.043 1.341 14.521 7.317 16.496 15.227 8.125 32.51 21.019 63.527 38.313 92.179 4.185 6.928 3.889 15.667-0.747 22.298l-73.975 105.789 62.186 62.145 105.032-75.039c6.641-4.738 15.462-5.086 22.451-0.88 28.284 17.007 59.178 29.696 91.811 37.709 7.961 1.955 13.999 8.483 15.319 16.578l20.783 127.361h87.851l22.441-128.057c1.392-7.972 7.347-14.367 15.206-16.332 32.265-8.043 63.066-20.865 91.535-38.098 7.010-4.247 15.882-3.899 22.543 0.89l105.38 75.755 62.125-62.094-75.049-106.976c-4.646-6.621-4.963-15.36-0.788-22.288 16.987-28.284 29.676-58.942 37.719-91.095 1.975-7.931 8.483-13.927 16.557-15.237l128.537-20.998v-87.851zM694.938 448.756c0-11.308-9.159-20.466-20.466-20.466-11.297 0-20.466 9.159-20.466 20.466 0 78.723-64.049 142.772-142.772 142.772s-142.772-64.049-142.772-142.772 64.049-142.772 142.772-142.772c32.94 0 63.885 10.898 89.488 31.518 8.8 7.092 21.684 5.71 28.775-3.101 7.092-8.8 5.7-21.684-3.101-28.775-32.48-26.166-73.381-40.574-115.163-40.574-101.297 0-183.704 82.407-183.704 183.704s82.407 183.704 183.704 183.704 183.704-82.407 183.704-183.704z" />
<glyph unicode="&#xe920;" glyph-name="iconfont-thermometer" d="M508.063 45.522c-100.478 0-181.923 81.445-181.923 181.923 0 46.064 17.257 87.997 45.486 120.047v380.238c0 75.348 61.078 136.437 136.437 136.437s136.437-61.089 136.437-136.437v-380.238c28.229-32.049 45.486-73.983 45.486-120.047 0-100.478-81.444-181.923-181.923-181.923zM553.55 305.782v421.949c0 25.12-20.367 45.476-45.487 45.476-25.119 0-45.486-20.356-45.486-45.476v-421.949c-27.052-15.748-45.487-44.753-45.487-78.336 0-50.239 40.734-90.972 90.973-90.972s90.973 40.734 90.973 90.972c0.001 33.583-18.412 62.59-45.486 78.336zM508.063 159.217c-37.668 0-68.229 30.54-68.229 68.23 0 29.651 19.056 54.637 45.486 64.032v436.252c0 12.56 10.173 22.744 22.743 22.744 12.55 0 22.744-10.184 22.744-22.744v-436.252c26.43-9.396 45.486-34.382 45.486-64.032 0-37.69-30.54-68.23-68.23-68.23z" />
<glyph unicode="&#xe921;" glyph-name="iconfont-tiwenji2" d="M512.348 924.658c-101.949 0-184.593-82.644-184.593-184.593v-360.185c0-47.247 17.756-90.343 46.956-122.99 9.733-10.882 19.107-12.869 25.904-25.836 2.724-5.195 6.875-26.559 6.875-26.559v-128.983c0-57.911 46.946-104.858 104.858-104.858s104.858 46.946 104.858 104.858v128.983c0 0 5.014 21.364 7.738 26.559 6.51 12.417 14.373 14.132 23.796 24.458 29.939 32.807 48.202 76.453 48.202 124.369v360.185c0.001 101.949-82.644 184.593-184.592 184.593zM607.573 293.079c-0.597-0.654-1.682-1.525-3.708-3.135-7.036-5.59-18.811-14.947-28.282-33.013-1.95-3.719-6.006-11.456-12.636-39.701l-1.474-6.283v-135.436c0-27.088-22.038-49.125-49.127-49.125v148.212h-49.125v35.264l-1.023 5.266c-5.708 29.381-10.11 37.775-12.225 41.809-9.804 18.702-22.49 28.394-30.069 34.185-1.383 1.057-3.277 2.505-3.652 2.924-21.129 23.625-32.766 54.109-32.766 85.838v360.185c0 71.054 57.807 128.861 128.863 128.861s128.863-57.807 128.863-128.861v-2.588h-60.778v-22.938h60.778v-85.429h-60.778v-22.938h60.778v-85.429h-60.778v-22.938h60.778v-85.428h-60.778v-22.938h60.778v-9.558c0-32.207-11.945-63.034-33.635-86.802zM512.347 783.705c-11.706 0-21.281-9.776-21.281-21.853v-505.223c0-12.046 9.574-21.853 21.281-21.853 11.738 0 21.282 9.807 21.282 21.853v505.223c0 12.077-9.545 21.853-21.282 21.853z" />
<glyph unicode="&#xe922;" glyph-name="iconfont-toys2" d="M522.667 116.659v0c117.724 0 208.411 68.016 208.411 143.775s-90.688 143.775-208.411 143.775c-117.724 0-208.411-68.016-208.411-143.775s90.688-143.775 208.411-143.775v0zM522.667 66.526v0c-142.79 0-258.545 86.816-258.545 193.909s115.754 193.909 258.545 193.909c142.79 0 258.545-86.816 258.545-193.909s-115.754-193.909-258.545-193.909v0zM328.758 461.594c49.542 0 89.703 40.161 89.703 89.703s-40.161 89.703-89.703 89.703c-49.542 0-89.703-40.161-89.703-89.703s40.161-89.703 89.703-89.703v0zM328.758 511.728c-21.854 0-39.57 17.716-39.57 39.57s17.716 39.57 39.57 39.57c21.854 0 39.57-17.716 39.57-39.57s-17.716-39.57-39.57-39.57v0zM716.575 461.594c49.542 0 89.703 40.161 89.703 89.703s-40.161 89.703-89.703 89.703c-49.542 0-89.703-40.161-89.703-89.703s40.161-89.703 89.703-89.703v0zM716.575 511.728c-21.854 0-39.57 17.716-39.57 39.57s17.716 39.57 39.57 39.57c21.854 0 39.57-17.716 39.57-39.57s-17.716-39.57-39.57-39.57v0zM932.149 192.841c44.272 68.626 68.038 147.296 68.038 229.184 0 246.31-214.191 445.202-477.52 445.202s-477.52-198.892-477.52-445.202c0-246.31 214.191-445.202 477.52-445.202 121.86 0 236.674 42.754 324.363 118.448 10.48 9.046 11.642 24.875 2.596 35.354s-24.875 11.642-35.354 2.596c-78.59-67.839-181.779-106.265-291.604-106.265-236.437 0-427.387 177.31-427.387 395.069s190.95 395.069 427.387 395.069c236.437 0 427.387-177.31 427.387-395.069 0-72.124-20.922-141.383-60.032-202.007-7.505-11.633-4.158-27.148 7.475-34.653s27.148-4.158 34.653 7.475v0zM933.297 618.855c41.982 33.921 66.889 84.922 66.889 139.958 0 99.33-80.523 179.853-179.853 179.853-72.895 0-137.725-43.774-165.672-109.752l46.163-19.554c20.162 47.598 66.923 79.172 119.51 79.172 71.642 0 129.72-58.078 129.72-129.72 0-39.728-17.939-76.461-48.264-100.963l31.508-38.995zM131.926 657.85c-30.325 24.502-48.264 61.235-48.264 100.963 0 71.642 58.078 129.72 129.72 129.72 52.586 0 99.348-31.574 119.51-79.172l46.163 19.554c-27.947 65.977-92.778 109.752-165.672 109.752-99.33 0-179.853-80.523-179.853-179.853 0-55.036 24.907-106.037 66.889-139.958l31.508 38.995zM534.522 267.788c38.24 0 69.24 31 69.24 69.24s-31 69.24-69.24 69.24c-38.24 0-69.24-31-69.24-69.24s31-69.24 69.24-69.24v0zM534.522 317.921c-10.553 0-19.107 8.555-19.107 19.107s8.555 19.107 19.107 19.107c10.553 0 19.107-8.555 19.107-19.107s-8.555-19.107-19.107-19.107v0z" />
<glyph unicode="&#xe923;" glyph-name="iconfont-wenduji" d="M539.712 365.497v377.89c0 7.841-12.209 14.188-27.276 14.188-15.062 0-27.277-6.348-27.277-14.188v-377.893c-55.399-12.433-96.808-61.896-96.808-121.052 0-68.526 55.559-124.084 124.085-124.084 68.54 0 124.084 55.558 124.084 124.084-0.001 59.156-41.4 108.619-96.808 121.055zM510.806 173.585c-38.691 0-70.168 31.477-70.168 70.168s31.477 70.168 70.168 70.168c38.693 0 70.17-31.477 70.17-70.168s-31.477-70.168-70.17-70.168zM750.399 611.521c15.935 0 28.854 12.919 28.854 28.855s-12.919 28.856-28.854 28.856h-50.364v36.069h50.364c15.935 0 28.854 12.919 28.854 28.854 0 15.938-12.919 28.856-28.854 28.856h-50.364v4.361c0 43.016-21.853 84.226-59.948 113.061-34.649 26.232-79.985 40.679-127.652 40.679-47.662 0-92.995-14.447-127.648-40.676-38.097-28.833-59.945-70.041-59.945-113.063v-334.312c-50.428-49.861-79.226-118.653-79.226-189.751 0-71.271 27.756-138.274 78.153-188.664 50.392-50.397 117.395-78.149 188.668-78.149 71.279 0 138.284 27.752 188.674 78.146 50.392 50.396 78.145 117.399 78.145 188.666 0 71.104-28.799 139.901-79.218 189.752v84.679h50.364c15.935 0 28.854 12.921 28.854 28.856s-12.919 28.854-28.854 28.854h-50.364v36.071l50.363-0.001zM721.544 243.312c0-55.854-21.75-108.364-61.247-147.859-39.488-39.493-92-61.244-147.863-61.244-55.859 0-108.367 21.75-147.861 61.247-39.498 39.488-61.248 92.001-61.248 147.854 0 57.357 23.91 112.794 65.62 152.115l13.607 12.855v359.092c0 24.783 13.508 49.22 37.063 67.048 24.688 18.689 57.655 28.981 92.82 28.981 35.167 0 68.129-10.293 92.818-28.983 23.558-17.83 37.072-42.267 37.072-67.047v-359.092l13.623-12.868c41.683-39.309 65.595-94.748 65.595-152.1z" />
<glyph unicode="&#xe924;" glyph-name="iconfont-xietang" d="M524.843 955.728c-7.573 5.696-18.069 5.696-25.643 0-16.363-12.288-401.065-304.254-401.065-605.906 0-228.159 185.663-413.822 413.865-413.822 228.159 0 413.865 185.663 413.865 413.822 0 301.652-384.702 593.64-401.022 605.906zM512-21.291c-204.671 0-371.177 166.463-371.177 371.113 0 250.793 304.446 508.285 371.177 561.725 66.752-53.418 371.155-310.697 371.155-561.725 0-204.607-166.484-371.113-371.155-371.113zM294.785 228.756c-43.328 75.178-21.141 164.010 6.293 240.959 3.968 11.115-1.813 23.317-12.928 27.264-11.136 3.989-23.296-1.813-27.264-12.928-30.699-86.186-55.082-186.388-3.072-276.543 20.224-35.114 49.344-67.946 86.506-97.493 3.947-3.157 8.64-4.672 13.291-4.672 6.272 0 12.501 2.752 16.725 8.043 7.317 9.195 5.781 22.635-3.435 29.952-32.96 26.261-58.56 54.976-76.117 85.418z" />
<glyph unicode="&#xe925;" glyph-name="iconfont-xietangicon" d="M512.001 97.146c-194.186 0-351.605 157.418-351.605 351.604s157.419 351.604 351.605 351.604c194.187 0 351.604-157.419 351.604-351.604s-157.417-351.604-351.604-351.604zM512.001 778.378c-182.047 0-329.629-147.577-329.629-329.628s147.582-329.63 329.629-329.63c182.046 0 329.63 147.579 329.63 329.63s-147.584 329.628-329.63 329.628zM621.090 399.54c-48.979 0-88.686 39.127-88.686 87.391 0 48.259 55.397 129.053 88.686 162.321 34.639-34.126 88.688-114.061 88.688-162.321 0-48.263-39.705-87.391-88.688-87.391zM620.666 614.105c-23.722-25.442-62.772-85.528-62.772-122.43 0-36.907 28.292-66.823 63.195-66.823s63.197 29.915 63.197 66.823c0 36.902-38.945 96.334-63.621 122.43zM478.925 630.543c-52.316-52.839-139.363-160.798-139.363-237.453 0-76.647 62.394-138.786 139.363-138.786 71.879 0 131.030 54.198 138.543 123.794 2.93-0.146 5.863-0.292 8.826-0.292 6.578 0 12.076 0.773 16.738 2.167-6.889-84.515-77.706-150.977-164.109-150.977-90.962 0-164.703 73.643-164.703 164.488s102.876 212.391 164.703 275.017c21.353-21.327 46.68-48.814 70.992-79.317-5.163-6.823-10.036-14.399-14.542-22.306-19.446 24.667-39.439 46.723-56.449 63.664z" />
<glyph unicode="&#xe926;" glyph-name="iconfont-xietangyi" d="M513.18 876.751c-235.38 0-426.191-190.809-426.191-426.189 0-235.388 190.811-426.199 426.191-426.199 235.388 0 426.207 190.811 426.207 426.199 0 235.38-190.818 426.189-426.207 426.189zM780.439 183.294c-68.387-68.389-162.877-110.693-267.258-110.693-104.364 0-198.863 42.306-267.26 110.693-68.398 68.397-110.693 162.886-110.693 267.268 0 104.364 42.297 198.862 110.693 267.26 68.396 68.387 162.894 110.694 267.259 110.694 104.382 0 198.871-42.307 267.258-110.693 68.398-68.398 110.703-162.895 110.703-267.26 0.001-104.382-42.305-198.872-110.702-267.269zM519.418 336.016h-1.695v48.746c0 4.31-2.95 7.818-6.589 7.818-3.631 0-6.591-3.508-6.591-7.818v-48.746h-1.768c-10.221 0-18.504-8.258-18.504-18.486v-133.202c0-10.202 8.285-18.486 18.504-18.486h16.643c10.202 0 18.486 8.275 18.486 18.478v133.21c-0.001 10.221-8.284 18.486-18.486 18.486zM460.608 526.555v24.818c-0.596 2.364-2.066 3.845-4.432 4.42l-2.662-7.084v-18.598l5.314-5.332 1.78 1.776zM453.515 517.694v-18.608l2.663-7.084c2.382 0.616 3.854 2.058 4.43 4.44v24.798l-1.779 1.787-5.314-5.332zM499.611 530.111h-0.002l5.306-5.332 1.788 1.776v24.818c-0.606 2.364-2.076 3.845-4.44 4.42l-2.652-7.084v-18.598zM497.823 548.709v0l2.643 7.083h-26.465c-2.374-0.586-3.845-2.066-4.44-4.43l7.093-2.653h21.169zM499.61 517.694v-18.608l2.652-7.084c2.364 0.605 3.845 2.056 4.44 4.44v24.798l-1.788 1.779-5.305-5.324zM476.563 499.097l-7.094-2.644c0.596-2.392 2.066-3.834 4.43-4.44h26.584l-2.661 7.084h-21.26zM476.562 517.694l-5.324 5.332-1.787-1.786v-23.020l7.111 2.654zM476.562 530.111v16.831l-7.111 2.661v-23.048l1.787-1.776zM522.629 484.929v14.168h-7.092v-14.168l3.546-3.546zM561.605 499.097h-0.002l2.662-7.084c2.384 0.605 3.854 2.056 4.45 4.43v24.798l-1.776 1.787-5.334-5.332v-18.598zM538.555 530.111v16.831l-7.073 2.661v-23.048l1.796-1.776zM538.555 499.097l-7.054-2.644c0.574-2.392 2.047-3.834 4.402-4.44h26.574l-2.634 7.084h-21.289zM538.555 517.694l-5.277 5.332-1.796-1.786v-23.020l7.073 2.654zM562.478 548.709v0l2.664 7.083h-29.137c-2.364-0.586-3.834-2.066-4.429-4.43l7.093-2.653h23.809zM565.141 523.905l-3.539 3.546h-23.048l-3.509-3.546 3.509-3.558h23.048zM644.316 652.982c0 40.874-33.137 73.992-73.99 73.992h-118.402c-40.853 0-73.99-33.129-73.99-73.992v-160.009c0-0.809 0.093-1.582 0.13-2.392-0.056-1.555-0.13-3.128-0.13-4.71v-41.636c0-61.724 41.999-113.627 98.975-128.734v2.029c0 12.967 9.587 23.747 22.051 25.616v44.282c0 3.36 1.359 6.413 3.566 8.609 2.206 2.206 5.259 3.574 8.61 3.574 3.368 0 6.413-1.368 8.619-3.574 2.198-2.196 3.566-5.25 3.566-8.609v-44.271c12.463-1.872 22.071-12.651 22.071-25.627v-2.019c56.947 15.107 98.948 67.010 98.948 128.732v41.628c0 1.601-0.064 3.173-0.112 4.719 0.018 0.799 0.112 1.572 0.112 2.382v160.010h-0.025zM582.826 388.738h-12.008c-8.191 0-14.8 6.636-14.8 14.791 0 8.163 6.636 14.818 14.8 14.818h12.008c8.191 0 14.8-6.656 14.8-14.818-0.001-8.155-6.627-14.791-14.8-14.791zM598.966 456.279h-175.73v201.637h175.73v-201.637z" />
<glyph unicode="&#xe927;" glyph-name="iconfont-xieya1" d="M780.651 457.131h-146.539c-8.085 0-15.467-4.565-19.093-11.797l-46.741-93.504-59.947 259.712c-2.091 8.981-9.707 15.616-18.901 16.448-9.109 0.619-17.856-4.352-21.504-12.843l-67.733-158.016h-156.885c-11.776 0-21.333-9.557-21.333-21.333 0-11.797 9.557-21.333 21.333-21.333h170.965c8.533 0 16.256 5.077 19.605 12.928l47.552 110.933 58.581-253.867c2.027-8.768 9.344-15.339 18.261-16.405 0.853-0.107 1.685-0.149 2.517-0.149 8 0 15.445 4.501 19.093 11.797l67.392 134.741h133.355c11.797 0 21.333 9.536 21.333 21.333 0.021 11.776-9.515 21.355-21.312 21.355zM707.243 909.013c-77.013 0-146.24-48.448-195.243-90.475-49.003 42.027-118.229 90.475-195.221 90.475-173.461 0-314.603-141.099-314.603-314.56 0-397.376 481.323-597.611 501.803-605.931l3.499-1.408 3.797-0.128c0 0 0.021 0 0.043 0 9.877 0 182.571 75.221 320.747 208.661 125.909 121.621 189.781 255.787 189.781 398.805-0.021 173.461-141.141 314.56-314.603 314.56zM746.347 176.704c-102.379-83.392-205.803-132.416-234.475-145.216-64.853 28.117-467.029 216.384-467.029 562.965 0 149.909 121.984 271.893 271.936 271.893 70.165 0 136.896-52.544 180.992-92.075l14.229-12.779 14.251 12.779c44.075 39.552 110.805 92.075 180.992 92.075 149.931 0 271.915-121.984 271.915-271.893 0-151.339-78.315-291.883-232.811-417.749z" />
<glyph unicode="&#xe928;" glyph-name="iconfont-xieya" d="M663.224 681.728c-74.633 132.591-149.033 237.626-149.275 237.978-3.785 5.383-10.052 8.52-16.671 8.52-6.625-0.119-12.838-3.372-16.561-8.871-0.236-0.358-71.322-104.441-142.65-236.681-71.086-132.71-143.353-291.68-143.944-409.784-0.297-115.384 46.128-194.635 107.633-242.299 61.508-47.729 136.144-65.229 195.523-65.29 59.668 0.116 137.206 18.63 201.902 66.652 64.703 47.841 115.087 127.205 114.794 241.35-0.652 116.623-76.233 275.234-150.75 408.426zM519.721 447.358v-414.129h-31.351v414.126c-43.025 7.441-75.779 44.858-75.779 90.010s32.754 82.565 75.779 90.010v130.843h31.351v-130.847c43.015-7.451 75.759-44.861 75.759-90.006s-32.744-82.555-75.759-90.006zM436.968 537.364c0-37.045 30.031-67.075 67.075-67.075s67.075 30.031 67.075 67.075c0 37.045-30.031 67.075-67.075 67.075s-67.075-30.031-67.075-67.075z" />
<glyph unicode="&#xe929;" glyph-name="iconfont-xieyaicon" d="M512.001 96.908c-193.904 0-351.093 157.192-351.093 351.091 0 193.907 157.188 351.093 351.093 351.093 193.903 0 351.091-157.185 351.091-351.093 0-193.899-157.188-351.091-351.091-351.091zM512.001 777.15c-181.783 0-329.151-147.363-329.151-329.151 0-181.781 147.368-329.15 329.151-329.15 181.781 0 329.15 147.369 329.15 329.15 0 181.787-147.369 329.151-329.15 329.151zM675.482 401.925l-77.394 88.624-99.496-121.852-66.337 77.541-44.226-44.314h-115.284v22.158h104.23l55.279 55.394 66.337-77.55 99.496 121.856 88.452-99.7h84.39v-22.157h-95.447zM702.32 455.44c12.435 36.18 4.179 77.815-24.992 106.608-39.417 38.932-102.829 40.299-144.331 3.064l-18.807-16.867-18.799 16.867c-41.501 37.235-104.896 35.868-144.333-3.064-29.989-29.602-37.898-72.796-23.909-109.661h-29.533c-12.956 44.393-1.761 94.198 33.661 129.175 50.346 49.721 130.782 50.759 182.914 3.984 52.142 46.775 132.593 45.738 182.923-3.984 38.061-37.587 48.080-92.269 30.282-138.98l-25.075 12.858zM504.313 264.288c5.433-5.391 14.318-5.391 19.76 0l127.537 125.916 21.233-18.096c-43.211-42.662-128.986-127.345-128.986-127.345-16.4-16.195-42.927-16.195-59.325 0 0 0-86.799 85.701-130.288 128.633h39.562l110.508-109.107z" />
<glyph unicode="&#xe92a;" glyph-name="iconfont-zonghepaixu" d="M0.021 879.159v-170.66h1023.957v170.66h-1023.957zM0.021 367.18h1023.957v170.66h-1023.957v-170.66zM0.021 25.878h1023.957v170.642h-1023.957v-170.642z" />
</font>
</defs>
</svg>
